<svg xmlns="http://www.w3.org/2000/svg" xmlns:xlink="http://www.w3.org/1999/xlink" width="59" height="63" viewBox="0 0 59 63">
    <defs>
        <path id="a" d="M.05.11h10.195v9.62H.049z"/>
        <path id="c" d="M.064.12H7.48v10.074H.064z"/>
    </defs>
    <g fill="none" fill-rule="evenodd">
        <path fill="#70B5E8" d="M16.427 12.305v0zm1.88 1.99a1.879 1.879 0 0 1-1.881-1.795c-.166-.306-.91-1.192-2.896-2.492-1.718-1.126-3.296-1.853-3.82-1.989a1.876 1.876 0 1 1 .95-3.631c1.242.323 3.524 1.505 5.424 2.81 2.896 1.99 4.198 3.685 4.099 5.333a1.88 1.88 0 0 1-1.876 1.764z"/>
        <g transform="translate(48.789 44.054)">
            <mask id="b" fill="#fff">
                <use xlink:href="#a"/>
            </mask>
            <path fill="#70B5E8" d="M8.362 9.73a1.88 1.88 0 0 1-.694-.133C5.36 8.682 4.303 7.113 3.453 5.852 2.71 4.75 2.242 4.108 1.268 3.742A1.875 1.875 0 0 1 .17 1.326 1.883 1.883 0 0 1 2.594.231c2.146.806 3.163 2.314 3.98 3.526.704 1.044 1.26 1.868 2.484 2.354a1.875 1.875 0 0 1-.696 3.62" mask="url(#b)"/>
        </g>
        <path fill="#70B5E8" d="M48.927 18.15a1.875 1.875 0 0 1-.65-3.637c.329-.12.67-.23 1.031-.344 1.862-.593 3.972-1.265 5.181-3.928a1.883 1.883 0 0 1 2.49-.935 1.875 1.875 0 0 1 .937 2.483c-1.9 4.183-5.383 5.292-7.464 5.955-.32.102-.623.198-.875.29a1.888 1.888 0 0 1-.65.117M40.658 9.327a1.875 1.875 0 0 1-1.772-2.507l.049-.138c.213-.614.657-1.89 1.527-3.19C41.619 1.76 43.106.613 44.882.08a1.876 1.876 0 1 1 1.085 3.593c-2.238.672-3.171 3.356-3.478 4.238l-.059.17a1.881 1.881 0 0 1-1.772 1.246M7.211 57.683a1.875 1.875 0 0 1-1.789-2.459c1.037-3.168 4.035-4.172 6.223-4.905.652-.219 1.268-.425 1.712-.646a1.883 1.883 0 0 1 2.523.841 1.874 1.874 0 0 1-.843 2.517c-.678.337-1.449.596-2.195.845-2.05.687-3.424 1.233-3.843 2.512a1.881 1.881 0 0 1-1.788 1.295"/>
        <g transform="translate(32.85 51.943)">
            <mask id="d" fill="#fff">
                <use xlink:href="#c"/>
            </mask>
            <path fill="#70B5E8" d="M5.597 10.194c-.337 0-.679-.09-.987-.28C2.28 8.477.328 5.14.07 2.156A1.878 1.878 0 0 1 1.784.126a1.88 1.88 0 0 1 2.036 1.71c.153 1.788 1.447 4.071 2.768 4.886a1.873 1.873 0 0 1 .61 2.583 1.88 1.88 0 0 1-1.6.89" mask="url(#d)"/>
        </g>
        <path fill="#70B5E8" d="M1.88 35.986a1.877 1.877 0 0 1-1.435-3.088c2.638-3.11 5.755-4.395 8.55-3.524a1.875 1.875 0 1 1-1.12 3.581c-1.489-.463-3.33.92-4.558 2.367a1.879 1.879 0 0 1-1.437.664"/>
        <path fill="#000" d="M47.162 16.923a1.882 1.882 0 0 0 2.415 1.112c.251-.093.554-.19.875-.291a27.72 27.72 0 0 0 1.436-.49l.143-2.865c.023-.448.018-.892-.012-1.332-.877.527-1.822.829-2.71 1.112a24.84 24.84 0 0 0-1.033.344 1.875 1.875 0 0 0-1.114 2.41M39.213 58.867c.161 0 .322-.004.483-.01a1.88 1.88 0 0 0-.258-.192c-1.32-.815-2.614-3.099-2.768-4.887a1.88 1.88 0 0 0-2.035-1.709 1.878 1.878 0 0 0-1.713 2.03c.109 1.272.527 2.608 1.15 3.833 1.658.62 3.384.935 5.141.935M51.382 44.285a1.883 1.883 0 0 0-2.423 1.095 1.875 1.875 0 0 0 1.097 2.417c.974.366 1.442 1.007 2.185 2.109.102.15.207.306.317.465a14.328 14.328 0 0 0 1.265-4.521 6.8 6.8 0 0 0-2.44-1.565M38.935 6.682l-.049.138a1.875 1.875 0 0 0 1.772 2.507c.773 0 1.498-.48 1.772-1.247l.06-.169c.287-.83 1.13-3.253 3.09-4.097a11.07 11.07 0 0 0-4.589-1.004h-.032a10.2 10.2 0 0 0-.497.682c-.87 1.3-1.314 2.576-1.527 3.19M12.843 53.876c.745-.25 1.516-.508 2.194-.845a1.874 1.874 0 0 0 .843-2.517 1.883 1.883 0 0 0-2.523-.84c-.444.22-1.06.427-1.712.645-1.056.354-2.3.772-3.422 1.465 1.045.99 2.203 1.829 3.448 2.505.361-.137.751-.272 1.172-.413M17.464 8.222l-.404.782a2.737 2.737 0 0 1-1.879 1.423l-.8.165c1.355.981 1.905 1.65 2.045 1.908a1.879 1.879 0 0 0 1.88 1.794 1.88 1.88 0 0 0 1.877-1.763c.082-1.358-.79-2.749-2.72-4.309M4.135 30.457c.412.384.58.962.437 1.507l-.726 2.78c1.19-1.21 2.741-2.19 4.028-1.789a1.876 1.876 0 1 0 1.121-3.582c-1.688-.526-3.493-.264-5.24.71.124.127.25.252.38.374" opacity=".15"/>
        <path fill="#38648C" d="M39.213 57.046c-1.781 0-3.527-.37-5.188-1.097l-2.334-1.023a11.24 11.24 0 0 0-5.33-.923l-5.805.406c-.348.025-.701.037-1.049.037-4.553 0-8.768-2.07-11.564-5.679a14.472 14.472 0 0 1-2.58-12.61l1.386-5.304a.628.628 0 0 0-.18-.618l-1.188-1.108a9.157 9.157 0 0 1-2.579-9.209 9.185 9.185 0 0 1 7.01-6.522l7.577-1.567a.627.627 0 0 0 .433-.327l1.732-3.352a9.2 9.2 0 0 1 8.209-4.987 9.235 9.235 0 0 1 6.878 3.08.628.628 0 0 0 .766.137l1.265-.67a9.277 9.277 0 0 1 4.32-1.08 9.31 9.31 0 0 1 6.702 2.88 9.085 9.085 0 0 1 2.515 6.788l-.286 5.723a.627.627 0 0 0 .535.653l.374.057c3.337.504 6.045 2.683 7.243 5.83 1.199 3.147.625 6.57-1.534 9.157l-4.501 5.391a.632.632 0 0 0-.143.46l.132 1.446c.335 3.643-.833 7.127-3.289 9.812-2.453 2.681-5.925 4.219-9.527 4.219"/>
        <path fill="#70B5E8" d="M23.374 10.114l-1.732 3.352a4.926 4.926 0 0 1-3.38 2.561l-7.579 1.567c-3.912.809-5.283 5.68-2.366 8.403l1.188 1.108a4.907 4.907 0 0 1 1.402 4.83L9.52 37.237c-1.784 6.83 3.677 13.39 10.735 12.895l5.805-.406c2.52-.177 5.045.26 7.358 1.274l2.334 1.023c5.984 2.623 12.593-2.125 11.997-8.618l-.133-1.445a4.907 4.907 0 0 1 1.12-3.595l4.501-5.391c2.456-2.943.746-7.433-3.05-8.006l-.373-.056a4.919 4.919 0 0 1-4.185-5.105l.287-5.723c.19-3.81-3.853-6.375-7.231-4.587l-1.265.67a4.936 4.936 0 0 1-5.988-1.073c-2.301-2.574-6.475-2.047-8.06 1.02"/>
        <path fill="#FFB70D" d="M37.925 43.75a2.293 2.293 0 0 1 2.296 2.29 2.293 2.293 0 0 1-2.296 2.291 2.293 2.293 0 0 1-2.296-2.29 2.293 2.293 0 0 1 2.296-2.29"/>
        <path fill="#231F20" d="M43.883 33.672a2.293 2.293 0 0 1 2.296 2.291 2.293 2.293 0 0 1-2.296 2.29 2.293 2.293 0 0 1-2.296-2.29 2.293 2.293 0 0 1 2.296-2.29" opacity=".25"/>
        <path fill="#FFB70D" d="M28.609 13.16c1.082 0 1.959.875 1.959 1.954a1.956 1.956 0 0 1-1.96 1.954 1.956 1.956 0 0 1-1.958-1.954c0-1.079.877-1.954 1.959-1.954"/>
        <path fill="#231F20" d="M15.667 37.064c1.082 0 1.959.875 1.959 1.954a1.956 1.956 0 0 1-1.959 1.954 1.956 1.956 0 0 1-1.959-1.954c0-1.08.877-1.954 1.96-1.954" opacity=".25"/>
        <path fill="#231F20" d="M27.152 53.975c1.572 0 3.1.32 4.539.951l2.333 1.023a12.854 12.854 0 0 0 5.19 1.097c1.887 0 3.739-.423 5.427-1.21-14.954-1.996-23.087-5.154-21.755-13.185.328-1.977 3.438-7.764-2.53-13.622-4.717-4.631-3.285-14.788-.048-22.096-.28.382-.532.788-.754 1.217l-1.732 3.352a.628.628 0 0 1-.433.328l-7.578 1.567a9.185 9.185 0 0 0-7.01 6.522 9.156 9.156 0 0 0 2.58 9.209l1.188 1.108a.628.628 0 0 1 .18.617l-1.387 5.305a14.472 14.472 0 0 0 2.58 12.61c2.797 3.609 7.012 5.678 11.565 5.678.348 0 .7-.012 1.05-.036l5.804-.407c.263-.018.529-.028.791-.028" opacity=".15"/>
        <g fill="#FFF" opacity=".7">
            <path d="M21.717 26.995c1.685-.402 3.311.358 3.632 1.697.32 1.338-.786 2.75-2.471 3.151-1.686.402-3.312-.358-3.632-1.697-.321-1.338.785-2.75 2.47-3.151M38.258 23.053c1.685-.402 3.311.358 3.632 1.697.32 1.338-.786 2.75-2.471 3.15-1.685.403-3.312-.357-3.632-1.696-.321-1.339.785-2.75 2.47-3.151"/>
        </g>
        <g fill="#231F20">
            <path d="M30.572 40.153a.91.91 0 0 1-.787-1.37c.096-.164.187-.332.275-.496.567-1.053 1.271-2.365 3.64-2.245a.911.911 0 1 1-.09 1.818c-1.215-.06-1.413.307-1.943 1.29-.095.176-.194.36-.306.552a.913.913 0 0 1-.79.45M40.22 17.442a.912.912 0 0 1-.349-.07c-1.3-.539-2.757-2.575-2.855-3.645a.912.912 0 1 1 1.817-.17c.072.43 1.059 1.852 1.738 2.134a.91.91 0 0 1-.35 1.751M12.282 23.508c-.172 0-.352-.007-.54-.023a.911.911 0 1 1 .152-1.814c1.07.09 1.647-.188 2.316-.51.65-.313 1.386-.668 2.488-.639a.911.911 0 1 1-.049 1.82c-.655-.016-1.094.193-1.647.459-.664.32-1.47.707-2.72.707M18.246 45.48c-.353 0-.74-.069-1.166-.237a.91.91 0 1 1 .671-1.693c.645.254.966.045 1.694-.494.624-.463 1.401-1.038 2.531-1.028a.911.911 0 0 1-.009 1.82h-.023c-.485 0-.853.255-1.41.668-.571.424-1.299.964-2.288.964M48.838 30.856a.91.91 0 0 1-.332-.063c-.782-.304-2.66-1.102-3.208-1.936a.909.909 0 0 1 .263-1.26.914.914 0 0 1 1.26.257c.203.254 1.298.834 2.349 1.243a.91.91 0 0 1-.332 1.759" opacity=".15"/>
        </g>
    </g>
</svg>
