<svg xmlns="http://www.w3.org/2000/svg" xmlns:xlink="http://www.w3.org/1999/xlink" width="47" height="56" viewBox="0 0 47 56">
    <defs>
        <path id="a" d="M.005.063h34.287v51.588H.005z"/>
        <path id="c" d="M0 55.21h46.3V0H0z"/>
    </defs>
    <g fill="none" fill-rule="evenodd">
        <path fill="#D1EFF2" d="M8.156 18.335c4.504 0 8.155 3.663 8.155 8.183S12.66 34.7 8.156 34.7C3.65 34.7 0 31.037 0 26.518c0-4.52 3.651-8.183 8.156-8.183"/>
        <path fill="#70B5E8" d="M8.156 18.335c4.504 0 8.155 3.663 8.155 8.183S12.66 34.7 8.156 34.7C3.65 34.7 0 31.037 0 26.518c0-4.52 3.651-8.183 8.156-8.183"/>
        <g fill="#FFF" opacity=".3">
            <path d="M8.813 20.81c.45 0 .814.366.814.817a.815.815 0 0 1-1.626 0c0-.451.363-.816.812-.816M3.92 27.532c.45 0 .814.365.814.816a.815.815 0 0 1-1.626 0c0-.451.363-.816.812-.816M11.72 24.639a.815.815 0 1 1 0 1.632.815.815 0 0 1-.814-.817c0-.45.364-.815.813-.815"/>
        </g>
        <path fill="#FFF" d="M2.389 20.731a8.277 8.277 0 0 0-.542.6l11.477 11.516a8.267 8.267 0 0 0 1.14-1.143L2.987 20.188c-.206.17-.406.35-.598.543" opacity=".3"/>
        <g transform="translate(11.714 3.559)">
            <mask id="b" fill="#fff">
                <use xlink:href="#a"/>
            </mask>
            <path fill="#38648C" d="M29.172 9.84V.064H5.126v9.778a4.986 4.986 0 0 1-1.643 3.7l-1.67 1.507A5.486 5.486 0 0 0 .005 19.12v28.422A4.102 4.102 0 0 0 4.1 51.651h26.097a4.102 4.102 0 0 0 4.095-4.109V19.12a5.486 5.486 0 0 0-1.808-4.072l-1.67-1.507a4.985 4.985 0 0 1-1.642-3.7" mask="url(#b)"/>
        </g>
        <path fill="#000" d="M11.72 50.506v.594a4.102 4.102 0 0 0 4.094 4.11h26.097a4.102 4.102 0 0 0 4.095-4.11v-.594H11.72z" opacity=".25"/>
        <path fill="#FFF" d="M39.473 43.557H18.252a1.454 1.454 0 0 1-1.452-1.456V26.91c0-.804.65-1.456 1.452-1.456h21.221c.802 0 1.452.652 1.452 1.457V42.1c0 .804-.65 1.456-1.452 1.456"/>
        <path fill="#F94A46" d="M16.8 34.506v7.595c0 .804.65 1.456 1.452 1.456h21.221c.802 0 1.452-.652 1.452-1.456v-7.595H16.8z"/>
        <path fill="#FFB70D" d="M37.363 38.437h-2.61a.807.807 0 0 1-.807-.808c0-.447.361-.809.806-.809h2.611c.445 0 .806.362.806.809 0 .446-.36.808-.806.808M37.363 41.243h-2.61a.807.807 0 0 1-.807-.808c0-.447.361-.81.806-.81h2.611c.445 0 .806.363.806.81 0 .446-.36.808-.806.808"/>
        <mask id="d" fill="#fff">
            <use xlink:href="#c"/>
        </mask>
        <path fill="#FFB70D" d="M22.971 43.557h1.612v-9.051h-1.612z" mask="url(#d)"/>
        <path fill="#000" d="M23.39 12.54h17.496V7.083H16.84v6.315a4.986 4.986 0 0 1-1.643 3.7l-1.67 1.508a5.486 5.486 0 0 0-1.808 4.072V51.1a4.102 4.102 0 0 0 4.095 4.11h15.759c-9.85-3.106-11.92-13.57-11.92-25.354 0-3.738-.448-8.016 1.572-10.832 1-1.394 1.361-3.589 1.47-5.819a.697.697 0 0 1 .695-.666" mask="url(#d)" opacity=".2"/>
        <path fill="#FFB70D" d="M44.068 0h-30.41a2.235 2.235 0 0 0-2.232 2.239V7.88c0 1.236.999 2.238 2.231 2.238h30.411A2.235 2.235 0 0 0 46.3 7.881V2.239A2.235 2.235 0 0 0 44.07 0" mask="url(#d)"/>
        <path fill="#000" d="M11.426 2.239V7.88c0 1.236.999 2.238 2.231 2.238h10.16C19.56 8.193 19.005 2.694 20.024 0h-6.367a2.235 2.235 0 0 0-2.231 2.239" mask="url(#d)" opacity=".15"/>
        <g fill="#000" mask="url(#d)" opacity=".1">
            <path d="M28.057 10.119h1.612V0h-1.612zM21.542 10.119h1.612V0h-1.612zM15.028 10.119h1.612V0h-1.612zM34.57 10.119h1.612V0H34.57zM41.085 10.119h1.612V0h-1.612z"/>
        </g>
        <path fill="#9FD3F4" d="M8.63 31.147c4.505 0 8.156 3.664 8.156 8.183 0 4.52-3.651 8.183-8.155 8.183-4.505 0-8.156-3.663-8.156-8.183s3.651-8.183 8.156-8.183" mask="url(#d)"/>
        <g fill="#FFF" mask="url(#d)" opacity=".5">
            <path d="M4.84 37.379c.45 0 .813.365.813.816 0 .45-.364.816-.813.816a.815.815 0 0 1-.813-.816c0-.451.364-.816.813-.816M6.807 33.327c.45 0 .813.366.813.816 0 .451-.364.816-.813.816a.815.815 0 0 1-.813-.816c0-.45.364-.816.813-.816M11.178 43.216c.449 0 .813.365.813.816 0 .45-.364.815-.813.815a.815.815 0 0 1-.814-.815c0-.451.365-.816.814-.816"/>
        </g>
        <path fill="#FFF" d="M14.94 34.143A8.255 8.255 0 0 0 13.8 33L2.321 44.516a8.3 8.3 0 0 0 1.14 1.143L14.94 34.143z" mask="url(#d)" opacity=".5"/>
        <path fill="#495059" d="M35.074 31.033H22.652a.807.807 0 0 1-.806-.809c0-.446.36-.809.806-.809h12.422c.445 0 .806.363.806.81 0 .446-.361.808-.806.808" mask="url(#d)"/>
    </g>
</svg>
