<svg xmlns="http://www.w3.org/2000/svg" width="62" height="57" viewBox="0 0 62 57">
    <g fill="none" fill-rule="evenodd">
        <path fill="#9FD3F4" d="M25.611 10.054H2.991A2.992 2.992 0 0 1 0 7.058V2.996A2.992 2.992 0 0 1 2.991 0h22.62a2.992 2.992 0 0 1 2.991 2.996v4.062a2.992 2.992 0 0 1-2.99 2.996"/>
        <path fill="#231F20" d="M13.587.012H2.99A2.992 2.992 0 0 0 0 3.008V7.07a2.992 2.992 0 0 0 2.991 2.996h13.902c-6.08-1.82-6.249-8.174-3.306-10.054" opacity=".1"/>
        <path fill="#9FD3F4" d="M23.432 10.054H5.17v37.68c0 5.058 4.093 9.145 9.13 9.145 5.05 0 9.13-4.1 9.13-9.145v-37.68z"/>
        <path fill="#70B5E8" d="M23.432 47.747V29.288c-5.401.886-13.83-.752-18.273-.994v19.453c0 5.057 4.093 9.144 9.13 9.144 5.05 0 9.143-4.1 9.143-9.144"/>
        <path fill="#231F20" d="M23.432 47.747v-.097c-4.808-.922-12.897 1.54-18.273.133.024 5.033 4.105 9.12 9.13 9.12 5.05-.012 9.143-4.111 9.143-9.156" opacity=".1"/>
        <g fill="#231F20">
            <path d="M19.968 35.486a.897.897 0 1 1-.001 1.793.897.897 0 0 1 .001-1.793M9.966 46.776a.897.897 0 1 1-.001 1.794.897.897 0 0 1 .001-1.794M9.566 32.878a.897.897 0 1 1 0 1.794.897.897 0 0 1 0-1.794M14.895 39.512a.897.897 0 1 1-.002 1.793.897.897 0 0 1 .002-1.793M18.164 49.784a.897.897 0 1 1-.001 1.794.897.897 0 0 1 .001-1.794"/>
        </g>
        <path fill="#231F20" d="M21.385 53.52C6.563 52.61 9.893 27.565 9.821 15.765c0-.91.726-1.65 1.647-1.65h11.976v-4.05H5.17v37.68c0 5.058 4.093 9.145 9.13 9.145a9.093 9.093 0 0 0 7.084-3.372" opacity=".15"/>
        <path fill="#9FD3F4" d="M59.009 10.054h-22.62a2.992 2.992 0 0 1-2.991-2.996V2.996A2.992 2.992 0 0 1 36.388 0H59.01A2.992 2.992 0 0 1 62 2.996v4.062a2.984 2.984 0 0 1-2.991 2.996"/>
        <path fill="#231F20" d="M46.984.012H36.39a2.992 2.992 0 0 0-2.991 2.996V7.07a2.992 2.992 0 0 0 2.99 2.996H50.29c-6.079-1.82-6.248-8.174-3.306-10.054" opacity=".1"/>
        <path fill="#9FD3F4" d="M56.83 10.054H38.567v37.68c0 5.058 4.093 9.145 9.13 9.145 5.05 0 9.131-4.1 9.131-9.145v-37.68z"/>
        <path fill="#F94A46" d="M56.83 47.747V20.399c-6.031 0-11.541 1.334-18.274 0v27.348c0 5.057 4.093 9.144 9.13 9.144 5.062 0 9.143-4.1 9.143-9.144"/>
        <path fill="#231F20" d="M38.593 48.353c.314 4.766 4.274 8.538 9.106 8.538 4.614 0 8.428-3.432 9.046-7.883-5.002 1.176-13.684-1.322-18.152-.655" opacity=".1"/>
        <g fill="#FFF">
            <path d="M50.58 41.21c1.459 0 2.64 1.487 2.64 3.323 0 1.835-1.181 3.323-2.64 3.323-1.457 0-2.639-1.488-2.639-3.323 0-1.836 1.182-3.323 2.64-3.323M50.58 23.212c1.459 0 2.64 1.488 2.64 3.323 0 1.836-1.181 3.323-2.64 3.323-1.457 0-2.639-1.487-2.639-3.323 0-1.835 1.182-3.323 2.64-3.323"/>
        </g>
        <path fill="#231F20" d="M54.783 53.52C39.96 52.61 43.29 27.565 43.218 15.765c0-.91.727-1.65 1.647-1.65h11.976v-4.05H38.568v37.68c0 5.058 4.093 9.145 9.13 9.145a9.093 9.093 0 0 0 7.085-3.372" opacity=".15"/>
        <g fill="#231F20">
            <path d="M54.456 34.552a.897.897 0 1 1-.001 1.793.897.897 0 0 1 0-1.793M41.838 41.695a.897.897 0 1 1-.001 1.793.897.897 0 0 1 0-1.793M41.838 25.54a.897.897 0 1 1-.001 1.794.897.897 0 0 1 0-1.793M50.012 51.021a.897.897 0 1 1-.002 1.794.897.897 0 0 1 .002-1.794"/>
        </g>
    </g>
</svg>
